<?xml version="1.0" encoding="UTF-8" standalone="no"?>
<svg width="25px" height="25px" viewBox="0 0 25 25" version="1.1" xmlns="http://www.w3.org/2000/svg" xmlns:xlink="http://www.w3.org/1999/xlink">
    <!-- Generator: Sketch 3.7.2 (28276) - http://www.bohemiancoding.com/sketch -->
    <title>Shape</title>
    <desc>Created with Sketch.</desc>
    <defs></defs>
    <g id="Symbols" stroke="none" stroke-width="1" fill="none" fill-rule="evenodd">
        <g id="team-member-no-text" transform="translate(-195.000000, -86.000000)" fill="#CDCDCD">
            <g id="Group-Copy-5-+-car7-Copy">
                <g id="Group-Copy-5">
                    <g id="networks-copy-2" transform="translate(160.000000, 86.000000)">
                        <g id="Layer_1">
                            <path d="M42.3095833,12.7366667 C42.2870833,12.7366667 42.55625,13.30625 42.56375,13.30625 C43.15125,14.3545833 44.28375,15.00625 46.1941667,15.1870833 C45.9216667,15.3904167 45.5941667,15.77625 45.54875,16.2220833 C45.2058333,16.44 44.51625,16.5120833 43.9804167,16.3458333 C43.2291667,16.1129167 42.9416667,14.6516667 41.8170833,14.86 C41.57375,14.9045833 41.6220833,15.0625 41.8325,15.1970833 C42.1754167,15.415 42.4979167,15.6879167 42.7466667,16.2683333 C42.9379167,16.7141667 43.3395833,17.5104167 44.6104167,17.5104167 C45.1145833,17.5104167 45.4679167,17.4508333 45.4679167,17.4508333 C45.4679167,17.4508333 45.4775,18.58875 45.4775,19.03125 C45.4775,19.5416667 44.7766667,19.6854167 44.7766667,19.9308333 C44.7766667,20.0279167 45.00875,20.0370833 45.195,20.0370833 C45.5633333,20.0370833 46.3295833,19.735 46.3295833,19.2045833 C46.3295833,18.7833333 46.3366667,17.3670833 46.3366667,17.11875 C46.3366667,16.5770833 46.6320833,16.4054167 46.6320833,16.4054167 C46.6320833,16.4054167 46.66875,19.2970833 46.5616667,19.6854167 C46.4358333,20.14125 46.20875,20.0766667 46.20875,20.28 C46.20875,20.5825 47.13125,20.3545833 47.4370833,19.69 C47.6733333,19.17375 47.57,16.3358333 47.57,16.3358333 L47.8220833,16.3308333 C47.8220833,16.3308333 47.83625,17.6295833 47.8275,18.2233333 C47.81875,18.8383333 47.77625,19.6158333 48.1479167,19.9825 C48.3920833,20.22375 49.1829167,20.6466667 49.1829167,20.26 C49.1829167,20.0354167 48.7495833,19.8508333 48.7495833,19.2429167 L48.7495833,16.445 C49.0958333,16.445 49.04375,17.365 49.04375,17.365 L49.0691667,19.0745833 C49.0691667,19.0745833 48.9925,19.6970833 49.7545833,19.9575 C50.0233333,20.0504167 50.5983333,20.0754167 50.6254167,19.92 C50.6525,19.7645833 49.9329167,19.5333333 49.92625,19.0516667 C49.9220833,18.7570833 49.9395833,18.5854167 49.9395833,17.3070833 C49.9395833,16.02875 49.765,15.55625 49.15625,15.1795833 C51.0345833,14.99 52.1975,14.5333333 52.76375,13.3104167 C52.8079167,13.3116667 52.995,12.7391667 52.9704167,12.7391667 C53.0975,12.2775 53.16625,11.73125 53.1795833,11.0845833 C53.17625,9.33041667 52.3220833,8.71 52.1583333,8.41875 C52.4,7.09083333 52.1175,6.48666667 51.9866667,6.27916667 C51.5025,6.11 50.3029167,6.71458333 49.6470833,7.14041667 C48.57875,6.83333333 46.3195833,6.86291667 45.4725,7.21958333 C43.9095833,6.12 43.0825,6.28833333 43.0825,6.28833333 C43.0825,6.28833333 42.5479167,7.22958333 42.94125,8.60708333 C42.4270833,9.25125 42.04375,9.70708333 42.04375,10.915 C42.0441667,11.5958333 42.1258333,12.205 42.3095833,12.7366667 L42.3095833,12.7366667 Z M47.5,25 C40.5966667,25 35,19.4033333 35,12.5 C35,5.59625 40.5966667,0 47.5,0 C54.4033333,0 60,5.59625 60,12.5 C60,19.4033333 54.4033333,25 47.5,25 L47.5,25 Z" id="Shape"></path>
                        </g>
                    </g>
                </g>
            </g>
        </g>
    </g>
</svg>