<?xml version="1.0" encoding="UTF-8" standalone="no"?>
<svg width="241px" height="98px" viewBox="0 0 241 98" version="1.1" xmlns="http://www.w3.org/2000/svg" xmlns:xlink="http://www.w3.org/1999/xlink" xmlns:sketch="http://www.bohemiancoding.com/sketch/ns">
    <!-- Generator: Sketch 3.5.2 (25235) - http://www.bohemiancoding.com/sketch -->
    <title>logo small</title>
    <desc>Created with Sketch.</desc>
    <defs>
        <path d="M188.234239,40.7947644 C186.008691,40.7947644 184.204952,42.6674191 184.204952,44.9780893 L184.204952,88.3624123 C184.204952,90.6744686 186.008691,92.5498955 188.234239,92.5498955 C190.458448,92.5498955 192.264865,90.6744686 192.264865,88.3624123 L192.264865,44.9794755 C192.264865,42.6674191 190.458448,40.7947644 188.234239,40.7947644 L188.234239,40.7947644 Z M21.0730754,40.7268443 C20.7704437,40.5993208 20.4530822,40.5230839 20.1357206,40.4745696 L19.8330889,40.4745696 C19.5920548,40.4745696 19.3510207,40.4745696 19.1220383,40.5064504 C14.345546,40.6935773 10.172978,43.0014752 7.49749949,46.8479718 L7.49749949,44.2891853 C7.37564336,43.1594935 6.80117876,42.1698003 5.95488127,41.5432718 C5.33488801,41.0733755 4.57830876,40.790606 3.7480802,40.790606 C2.91517349,40.790606 2.15993332,41.0733755 1.54127914,41.5432718 C0.60392432,42.2349482 0,43.3951347 0,44.6828447 L0,88.4788467 C0,89.7346759 0.559734736,90.8505064 1.40603223,91.6031722 C2.10235295,92.1839586 2.97811017,92.5471233 3.93019486,92.5471233 C4.88227954,92.5471233 5.75937583,92.1839586 6.43962762,91.6031722 C7.19754594,90.9433768 7.7251428,89.9855645 7.83226907,88.903001 L7.83226907,62.1064346 C7.83226907,53.6150335 13.6666333,49.2972545 19.6844512,48.6693399 L19.71525,48.6693399 L20.3660421,48.6069643 L20.3941627,48.6069643 C20.620467,48.559836 20.8641792,48.4974604 21.0744145,48.4032039 C22.5715041,47.8224176 23.6441058,46.3156998 23.6441058,44.5567074 C23.6427667,42.799101 22.570165,41.3062445 21.0730754,40.7268443 L21.0730754,40.7268443 Z M72.4655621,64.9951189 C71.8000402,57.9147929 69.1553605,51.6037663 64.9667235,47.2249978 C60.6281098,42.688211 54.8848029,40.3969466 47.8974923,40.3969466 C32.1914427,40.3969466 22.8178945,53.7245374 22.8178945,66.6265879 C22.8178945,81.5246582 33.5961359,92.7633588 47.8974923,92.7633588 C56.93761,92.7633588 64.5743736,88.2279581 69.1245617,80.4074415 C69.2745385,80.1898199 69.4111245,79.9541787 69.5182507,79.7019039 C69.6976872,79.2333937 69.8048135,78.7122108 69.8048135,78.1799388 C69.8048135,77.6310334 69.6976872,77.1112365 69.5182507,76.6579737 C69.3214062,76.1853051 69.0495733,75.762537 68.7000739,75.4007584 C68.3679825,75.0528411 67.9595636,74.7562103 67.5069551,74.5690835 C67.0543466,74.3653231 66.5548704,74.2544331 66.0420034,74.2544331 C65.5103893,74.2544331 65.0283211,74.363937 64.5757127,74.5690835 C64.120426,74.7562103 63.7120072,75.0528411 63.3651859,75.4007584 C63.21387,75.574024 63.0786231,75.7445174 62.9433762,75.9358026 L62.8670487,76.06194 C59.82868,81.8545559 54.3264072,85.2464035 47.9001704,85.2464035 C39.0716271,85.2464035 32.0856555,78.759339 30.9835941,69.7204186 L68.7643496,69.7204186 C69.2919465,69.7204186 69.7927618,69.6095286 70.2453703,69.402996 C70.6993178,69.2158691 71.0930068,68.9344858 71.4411672,68.5713211 C71.7866494,68.2109286 72.0584823,67.7867744 72.240597,67.3335115 C72.4227116,66.8913377 72.5298379,66.4075801 72.5432287,65.885011 L72.4682403,65.007594 L72.4682403,64.9951189 L72.4655621,64.9951189 Z M31.0572434,62.199305 C32.8703554,53.7383986 39.6728732,47.9014267 47.8988313,47.9014267 C55.7766291,47.9014267 62.2028659,53.6150335 64.1378341,62.199305 L31.0572434,62.199305 L31.0572434,62.199305 Z M225.170036,66.6667855 L240.095403,47.6131127 C241.501435,45.8222394 241.238976,43.187216 239.512904,41.7276265 C238.764359,41.0955535 237.865837,40.7892199 236.969994,40.7892199 C235.79964,40.7892199 234.639998,41.3145612 233.843246,42.3292047 L219.975751,60.035564 L206.108256,42.3292047 C205.311505,41.3145612 204.151863,40.7892199 202.981508,40.7892199 C202.085665,40.7892199 201.185804,41.0969396 200.438599,41.7276265 C198.713866,43.187216 198.452745,45.8236255 199.856099,47.6131127 L214.781466,66.6667855 L199.857439,85.7218443 C198.451406,87.5127177 198.713866,90.1505134 200.438599,91.6101029 C201.187143,92.2407897 202.085665,92.5485094 202.97883,92.5485094 C204.149185,92.5485094 205.308826,92.0203958 206.106917,91.0043663 L219.974412,73.3007792 L233.840568,91.0043663 C234.638659,92.0203958 235.798301,92.5485094 236.968655,92.5485094 C237.86182,92.5485094 238.761681,92.2407897 239.507547,91.6101029 C241.233619,90.1505134 241.49474,87.5127177 240.090047,85.7218443 L225.170036,66.6667855 L225.170036,66.6667855 Z" id="path-1"></path>
        <path d="M170.082,51.2751152 C165.830636,46.0783193 159.864022,42.8905518 153.279756,42.3011824 C152.557827,42.2385704 151.829213,42.2059032 151.10862,42.2059032 C145.766341,42.2059032 140.767647,44.0243735 136.672702,47.0814724 L141.877279,9.2733529 L141.941451,8.54787039 C142.057762,4.78706706 139.186086,1.64149468 135.526973,1.51218729 C131.863848,1.38832442 128.799658,4.33789403 128.671315,8.09461397 L127.206065,53.5400362 C122.223414,46.305628 114.04823,41.6492009 104.852986,41.6492009 C103.881055,41.6492009 102.903776,41.7050073 101.935855,41.8098143 C95.0521228,42.558436 88.8421912,45.8932055 84.2846764,51.1948085 L82.9170208,6.25028226 L82.8849351,5.72896931 C82.4945583,2.18594684 79.3795657,-0.36208929 75.9343572,0.0421664428 C72.485138,0.438255393 70.0051761,3.6341896 70.3942159,7.17312868 C70.3942159,7.17312868 77.4945273,72.4025815 77.5332976,72.7877814 C79.017264,87.1626797 90.7352511,98 104.792825,98 C105.758072,98 106.743372,97.9455548 107.708618,97.8407477 C117.935954,96.7300653 126.258199,89.9407468 130.045655,80.862007 C130.686034,81.9345777 131.383899,82.9799259 132.18738,83.9585787 C136.441417,89.1567357 142.404021,92.3445031 148.989623,92.9325115 C149.710216,92.9978457 150.44284,93.0305129 151.158086,93.0305129 C163.865384,93.0305129 174.686306,82.8356461 175.790591,69.8191559 C176.36145,63.0584212 174.332026,56.4719111 170.082,51.2751152 L170.082,51.2751152 Z M106.869041,89.7188826 C106.176523,89.7937447 105.479995,89.8332175 104.791488,89.8332175 C94.8154903,89.8332175 86.49592,82.1373862 85.4451114,71.9289081 C84.8983165,66.6150549 86.3943151,61.4019255 89.6683996,57.2463943 C92.942484,53.0881409 97.5962562,50.4965486 102.767411,49.9303183 C103.457255,49.8554562 104.161805,49.8187056 104.851649,49.8187056 C114.828983,49.8187056 123.143206,57.5131759 124.198025,67.7189317 C125.330385,78.691004 117.558947,88.5632828 106.869041,89.7188826 L106.869041,89.7188826 Z M167.865408,69.1140904 C167.118078,77.9451045 159.777123,84.8650915 151.155412,84.8650915 C150.672788,84.8650915 150.171448,84.8446746 149.67813,84.7983961 C145.210188,84.3968627 141.15936,82.2353876 138.272979,78.7100598 C135.385261,75.1833709 134.013594,70.7134186 134.39996,66.1223257 C135.152639,57.2913116 142.488246,50.3740469 151.10862,50.3740469 C151.595254,50.3740469 152.100605,50.3958249 152.589913,50.43802 C157.059192,50.8368312 161.106008,53.0010285 163.99239,56.5263563 C166.881445,60.050323 168.249101,64.5257198 167.865408,69.1140904 L167.865408,69.1140904 Z" id="path-2"></path>
        <path id="path-3" d="M182.369565,31.4315515 C182.369565,34.738211 185.060509,37.4294131 188.369565,37.4294131 C191.680059,37.4294131 194.369565,34.738211 194.369565,31.4315515 C194.368128,28.1248919 191.678621,25.4351145 188.369565,25.4351145 C185.060509,25.4351145 182.369565,28.1248919 182.369565,31.4315515 Z"></path>
    </defs>
    <g id="Page-1" stroke="none" stroke-width="1" fill="none" fill-rule="evenodd" sketch:type="MSPage">
        <g id="Desktop-HD-Copy-19" sketch:type="MSArtboardGroup" transform="translate(-639.000000, -508.000000)">
            <g id="logo-small" sketch:type="MSLayerGroup" transform="translate(639.000000, 508.000000)">
                <g id="Shape">
                    <use fill="none" sketch:type="MSShapeGroup" xlink:href="#path-1"></use>
                    <use fill="#85BC49" fill-rule="evenodd" xlink:href="#path-1"></use>
                </g>
                <g id="Shape">
                    <use fill="none" sketch:type="MSShapeGroup" xlink:href="#path-2"></use>
                    <use fill="#85BC49" fill-rule="evenodd" xlink:href="#path-2"></use>
                </g>
                <g id="Shape">
                    <use fill="none" sketch:type="MSShapeGroup" xlink:href="#path-3"></use>
                    <use fill="#85BC49" fill-rule="evenodd" xlink:href="#path-3"></use>
                </g>
            </g>
        </g>
    </g>
</svg>